<svg version="1.1" class="logo-comparsa" xmlns="http://www.w3.org/2000/svg" xmlns:xlink="http://www.w3.org/1999/xlink" x="0px" y="0px"
   viewBox="0 0 1000 1000" style="enable-background:new 0 0 1000 1000;" xml:space="preserve">
  <g>
    <path style="fill:#c86157;/*stroke-width:5px;stroke:#000000;*/" d="M500,997.5c-67.2,0-132.3-13.2-193.6-39.1c-59.2-25.1-112.4-60.9-158.1-106.6
      c-45.7-45.7-81.6-98.9-106.6-158.1C15.7,632.3,2.5,567.2,2.5,500s13.2-132.3,39.1-193.6c25.1-59.2,60.9-112.4,106.6-158.1
      s98.9-81.6,158.1-106.6C367.7,15.7,432.8,2.5,500,2.5s132.3,13.2,193.6,39.1c59.2,25.1,112.4,60.9,158.1,106.6
      c45.7,45.7,81.6,98.9,106.6,158.1c25.9,61.3,39.1,126.5,39.1,193.6s-13.2,132.3-39.1,193.6c-25.1,59.2-60.9,112.4-106.6,158.1
      c-45.7,45.7-98.9,81.6-158.1,106.6C632.3,984.3,567.2,997.5,500,997.5z"/>
  </g>
  <g>
    <path style="fill:#FFFFFF;stroke:#FFFFFF;stroke-miterlimit:10;" d="M697.5,408.8h-15.8l-164.8-70.2v-31.9l-13.4-22.3v-12.2l-2-1.9h-0.2l-2,1.9v12.2L486,306.7v31.9l-165.6,70.2
      h-25.2l-63.6,0h-33.3v19.6h9.8v33.7h-58v239.5H140v28.1h720v-28.1h-10.1V462.1H792v-33.8h11.7v-19.6H761L697.5,408.8z M286.7,602.1
      h-38.2v-65.7h38.2L286.7,602.1L286.7,602.1z M674.1,602.1H636v-65.7h38.1V602.1z M655.2,627.2c16.6,0,18.9,17.7,18.9,17.7v56.7H636
      v-56.7C636,644.9,638.5,627.2,655.2,627.2z M596.6,602.1h-38.1v-65.7h38.1V602.1z M577.6,627.2c16.6,0,18.9,17.7,18.9,17.7v56.7
      h-38v-56.7C558.6,644.9,560.9,627.2,577.6,627.2z M519.1,602.1H481v-65.7h38.2L519.1,602.1L519.1,602.1z M500.1,627.2
      c16.7,0,19,17.7,19,17.7v56.7H481v-56.7C481,644.9,483.5,627.2,500.1,627.2z M441.6,602.1h-38.1v-65.7h38.1V602.1z M422.6,627.2
      c16.7,0,19,17.7,19,17.7v56.7h-38v-56.7C403.5,644.9,406,627.2,422.6,627.2z M364.2,602.1H326v-65.7h38.2L364.2,602.1L364.2,602.1z
       M345.1,627.2c16.7,0,19.1,17.7,19.1,17.7v56.7H326v-56.7C326,644.9,328.5,627.2,345.1,627.2z M713.5,701.6v-56.7
      c0,0,2.5-17.7,19.1-17.7c16.7,0,19,17.7,19,17.7v56.7H713.5z M713.5,602.1v-65.7h38.2v65.7H713.5z M792.9,536.1h35.4v68.3h-35.4
      V536.1z M673.8,479.9c8.3-20.7,31.2-35.5,58.2-35.5c27,0,49.9,14.9,58.1,35.5H673.8z M217,418.1h566.1v14.4H217V418.1z
       M268.1,444.3c26.9,0,49.8,14.9,58.1,35.5H209.8C218.1,459.2,241,444.3,268.1,444.3z M171.6,536.1h35.6v68.3h-35.6V536.1z
       M248.5,644.9c0,0,2.5-17.7,19.1-17.7s19.1,17.7,19.1,17.7v56.7h-38.2V644.9z"/>
  </g>
</svg>
