<?xml version="1.0" encoding="utf-8"?>
<!-- Generator: Adobe Illustrator 21.0.0, SVG Export Plug-In . SVG Version: 6.00 Build 0)  -->
<svg version="1.1" id="Livello_1" xmlns="http://www.w3.org/2000/svg" xmlns:xlink="http://www.w3.org/1999/xlink" x="0px" y="0px"
	 viewBox="0 0 500 500" style="enable-background:new 0 0 500 500;" xml:space="preserve">
<path d="M250.2,495.4c135.2,0,245.2-110,245.2-245.2S385.4,5,250.2,5S5,115,5,250.2S115,495.4,250.2,495.4z M250.2,29.5
	c121.7,0,220.7,99,220.7,220.7s-99,220.7-220.7,220.7s-220.7-99-220.7-220.7S128.5,29.5,250.2,29.5z"/>
<path d="M190,221.2l48-48v183.4c0,6.8,5.5,12.3,12.3,12.3s12.3-5.5,12.3-12.3V173.3l48,48c2.4,2.4,5.5,3.6,8.7,3.6s6.3-1.2,8.7-3.6
	c4.8-4.8,4.8-12.5,0-17.3l-68.9-68.9c-4.8-4.8-12.5-4.8-17.3,0L172.9,204c-4.8,4.8-4.8,12.5,0,17.3C177.4,226,185.2,226,190,221.2z"
	/>
</svg>
