<?xml version="1.0" encoding="utf-8"?>
<!-- Generator: Adobe Illustrator 21.0.0, SVG Export Plug-In . SVG Version: 6.00 Build 0)  -->
<svg version="1.1" id="Livello_1" xmlns="http://www.w3.org/2000/svg" xmlns:xlink="http://www.w3.org/1999/xlink" x="0px" y="0px"
	 viewBox="0 0 412.2 412.3" style="enable-background:new 0 0 412.2 412.3;" xml:space="preserve">
<style type="text/css">
	.st0{fill:#3C589D;}
	.st1{fill:#FDFDFE;}
</style>
<g>
	<path class="st0" d="M0,205.9C-0.2,92,93.6-2.3,210.4,0c111.8,2.2,203.8,94.7,201.8,210.1c-2,112-94.7,204.6-210.8,202.1
		C89.9,409.9-0.4,318.4,0,205.9z M226,272.4c0-20.5,0.1-41-0.1-61.5c0-4.2,1.2-5.3,5.3-5.2c9.3,0.3,18.7,0,28,0.2
		c3,0.1,3.9-0.8,4.1-3.9c0.9-12.3,2-24.6,3.3-36.8c0.3-3-0.3-3.7-3.2-3.6c-11.2,0.1-22.3,0.1-33.5,0.1c-2,0-4,0.5-3.9-2.8
		c0.2-9.3-0.1-18.7,0.2-28c0.2-6.1,2.8-8.7,8.9-9.4c9.3-1,18.6-0.3,28-0.4c3,0,4.1-0.8,4-4c-0.2-12.7-0.1-25.3,0-38
		c0-3-0.8-4.1-3.9-4c-14.3,0.3-28.7-0.5-43,0.5c-10.8,0.7-21.1,3.2-30,9.7c-12.9,9.4-16.9,23-17.1,38.1c-0.2,11.5-0.1,23,0,34.5
		c0,2.8-0.7,3.8-3.6,3.7c-6.8-0.2-13.7,0-20.5-0.1c-2.6-0.1-3.9,0.3-3.9,3.4c0.2,12.7,0.2,25.3,0,38c0,3,1.1,3.6,3.8,3.5
		c6.2-0.2,12.4,0.3,18.5-0.2c4.7-0.3,5.7,1.2,5.7,5.8c-0.2,40.7-0.1,81.3-0.2,122c0,3.9,0.9,5.1,4.9,5c14.5-0.2,29-0.2,43.5,0
		c3.8,0.1,4.8-1.1,4.7-4.8C225.9,313.7,226,293,226,272.4z"/>
	<path class="st1" d="M226,272.4c0,20.7-0.1,41.3,0.1,62c0,3.7-0.9,4.8-4.7,4.8c-14.5-0.2-29-0.2-43.5,0c-4,0.1-4.9-1.2-4.9-5
		c0.1-40.7,0-81.3,0.2-122c0-4.5-1.1-6.1-5.7-5.8c-6.1,0.4-12.3,0-18.5,0.2c-2.7,0.1-3.8-0.5-3.8-3.5c0.2-12.7,0.2-25.3,0-38
		c0-3.1,1.3-3.5,3.9-3.4c6.8,0.1,13.7-0.1,20.5,0.1c2.9,0.1,3.7-0.9,3.6-3.7c-0.1-11.5-0.2-23,0-34.5c0.3-15.1,4.2-28.7,17.1-38.1
		c8.9-6.5,19.2-9,30-9.7c14.3-1,28.7-0.2,43-0.5c3.1-0.1,4,1,3.9,4c-0.1,12.7-0.1,25.3,0,38c0,3.1-1,3.9-4,4c-9.3,0-18.7-0.6-28,0.4
		c-6.1,0.7-8.7,3.2-8.9,9.4c-0.3,9.3-0.1,18.7-0.2,28c-0.1,3.3,2,2.8,3.9,2.8c11.2,0,22.3,0.1,33.5-0.1c2.9,0,3.5,0.7,3.2,3.6
		c-1.3,12.2-2.4,24.5-3.3,36.8c-0.2,3-1.1,3.9-4.1,3.9c-9.3-0.2-18.7,0.1-28-0.2c-4.1-0.1-5.4,0.9-5.3,5.2
		C226.1,231.4,226,251.9,226,272.4z"/>
</g>
</svg>
