<?xml version="1.0" encoding="utf-8"?>
<!-- Generator: Adobe Illustrator 21.0.0, SVG Export Plug-In . SVG Version: 6.00 Build 0)  -->
<svg version="1.1" id="Livello_1" xmlns="http://www.w3.org/2000/svg" xmlns:xlink="http://www.w3.org/1999/xlink" x="0px" y="0px"
	 viewBox="0 0 601.4 180.5" style="enable-background:new 0 0 601.4 180.5;" xml:space="preserve">
<style type="text/css">
	.st0{fill:#FFFFFF;}
</style>
<g>
	<path class="st0" d="M0.6,83.1c11.9-6.6,11.3-20.4,17.1-27c11.4,0.3,21.3,0.8,31.2,0.7c1.8,0,3.8-1.8,5.3-3.2
		c2.8-2.5,5.2-5.4,7.8-7.9c5.1-4.9,9.9-12.6,15.7-13.5c4.4-0.6,9.8,8.1,15.4,11.5c3.8,2.2,8.8,2.4,14.3,3.7c0-8.7,0-15.4,0-22.6
		c2.8,0,5,0,8.2,0c0-5.1-0.5-9.7,0.2-14.2c0.5-3.1,2.6-6,3.9-9c1.5,3,4,6,4.3,9.1c0.9,9.2,1,18.5,1.4,27.8c0.1,2.2,0.4,4.3,0.7,7.1
		c42.3,0,84.6,0,128.2,0c0-8.7,0-17.3,0-25.8c0-2.8-0.6-5.8,0.2-8.3c0.8-2.8,2.9-5.3,4.5-7.9c1.6,2.6,4.3,5,4.5,7.7
		c0.6,7.9,0.2,15.9,0.2,23.9c0,3.3,0,6.7,0,9.7c16.9,6.5,26.5-4.4,36.7-14.6c10.8,8.8,19.7,21.5,37.1,14.4c0-10.1-0.4-21,0.2-31.9
		c0.2-3.2,3.2-6.2,4.9-9.3c1.7,3.2,4.6,6.3,4.8,9.6c0.6,10.6,0.2,21.3,0.2,32.5c42.9,0,84.9,0,127.1,0c3.9-14.4-2.3-30.9,7.6-45.5
		c7.4,8.5-2.8,21,11.2,26.1c0,5.4,0,12.1,0,18.4c9.1,4.6,14.5,0.3,20-5.3c9.5-9.7,9.7-9.5,19.3-0.4c2.7,2.5,5.7,4.8,8.1,7.5
		c9.8,11.3,27.7,14.9,41.4,7.7c4.2,7.8,7.3,16.5,12.9,23.1c5.9,6.9,6.1,14,5.9,22c-0.4,15.5-0.1,31-0.1,46.5c0,11.4,0,22.8,0,34.4
		c-9.6,0-17.6,0-25.5,0c-21.6,0.1-43.2,0.4-64.8,0.4c-3.2,0-6.5-1.1-9.7-1.4c-2.6-0.3-5.2-0.3-7.8,0c-1.4,0.1-2.8,1.7-4.2,1.6
		c-39.2-2.4-78.4,0.5-117.6-0.6c-22.3-0.6-44.5-1.7-66.8-1.6c-36.5,0.1-73,1.2-109.5,1.5c-8.9,0.1-17.8-1.7-26.6-1.6
		c-24.1,0.3-48.1,1.3-72.1,1.7c-28.7,0.4-57.5,0.1-86.2,0.6c-10.3,0.2-10.1-8-10.2-13.3c-0.5-25.7,0.1-51.4,0.3-77
		C0.6,87.7,0.6,85.2,0.6,83.1z"/>
</g>
</svg>
