<?xml version="1.0" encoding="utf-8"?>
<!-- Generator: Adobe Illustrator 21.0.0, SVG Export Plug-In . SVG Version: 6.00 Build 0)  -->
<svg version="1.1" id="Livello_1" xmlns="http://www.w3.org/2000/svg" xmlns:xlink="http://www.w3.org/1999/xlink" x="0px" y="0px"
	 viewBox="0 0 601.3 180.6" style="enable-background:new 0 0 601.3 180.6;" xml:space="preserve">
<style type="text/css">
	.st0{fill:#FFFFFF;}
</style>
<g>
	<path class="st0" d="M243.7,110.8c-3.5,0-8.1,2.7-13.8,8c-5.7,5.4-8.6,9.8-8.6,13.3c0,2,0.7,3.1,2.1,3.1c3.3,0,7.8-3.6,13.4-10.8
		l9-12.4C245.5,111.2,244.7,110.8,243.7,110.8z"/>
	<path class="st0" d="M188,110.8c-3.5,0-8.1,2.7-13.8,8c-5.7,5.4-8.6,9.8-8.6,13.3c0,2,0.7,3.1,2.1,3.1c3.3,0,7.8-3.6,13.4-10.8
		l9-12.4C189.7,111.2,189,110.8,188,110.8z"/>
	<path class="st0" d="M515,121.6c3.6-2.3,5.9-4.8,6.8-7.5c0.1-0.3,0.2-0.5,0.2-0.8c0-0.7-0.7-1-2.2-1s-3.5,1.1-6.2,3.3
		c-3.6,3-6.4,6-8.3,9.3c0.3,0.1,0.7,0.2,1.1,0.2C508.5,125,511.4,123.9,515,121.6z"/>
	<path class="st0" d="M335.8,114.2c-1.9,0-4.7,2.3-8.2,6.8c-3.5,4.5-5.3,7.9-5.3,10c0,2.2,0.7,3.2,2,3.2c2.4,0,5.5-2.2,9.3-6.6
		c3.7-4.4,5.6-7.6,5.6-9.5C338.3,117.6,337.2,116.3,335.8,114.2z"/>
	<path class="st0" d="M595.4,77.1c-5.6-6.6-8.7-15.3-12.9-23.1c-13.7,7.2-31.6,3.6-41.4-7.7c-2.4-2.7-5.4-5-8.1-7.5
		c-9.6-9.1-9.8-9.3-19.3,0.4c-5.5,5.6-10.9,9.9-20,5.3c0-6.3,0-13,0-18.4c-14-5.1-3.8-17.6-11.2-26.1c-9.9,14.6-3.7,31.1-7.6,45.5
		c-42.2,0-84.2,0-127.1,0c0-11.2,0.4-21.9-0.2-32.5c-0.2-3.3-3.1-6.4-4.8-9.6c-1.7,3.1-4.7,6.1-4.9,9.3c-0.6,10.9-0.2,21.8-0.2,31.9
		c-17.4,7.1-26.3-5.6-37.1-14.4c-10.2,10.2-19.8,21.1-36.7,14.6c0-3,0-6.4,0-9.7c0-8,0.4-16-0.2-23.9c-0.2-2.7-2.9-5.1-4.5-7.7
		c-1.6,2.6-3.7,5.1-4.5,7.9c-0.8,2.5-0.2,5.5-0.2,8.3c0,8.5,0,17.1,0,25.8c-43.6,0-85.9,0-128.2,0c-0.3-2.8-0.6-4.9-0.7-7.1
		c-0.4-9.3-0.5-18.6-1.4-27.8c-0.3-3.1-2.8-6.1-4.3-9.1c-1.3,3-3.4,5.9-3.9,9c-0.7,4.5-0.2,9.1-0.2,14.2c-3.2,0-5.4,0-8.2,0
		c0,7.2,0,13.9,0,22.6c-5.5-1.3-10.5-1.5-14.3-3.7c-5.6-3.4-11-12.1-15.4-11.5c-5.8,0.9-10.6,8.6-15.7,13.5c-2.6,2.5-5,5.4-7.8,7.9
		c-1.5,1.4-3.5,3.2-5.3,3.2c-9.9,0.1-19.8-0.4-31.2-0.7c-5.8,6.6-5.2,20.4-17.1,27c0,2.1,0,4.6-0.3,7.3c-0.2,25.6-0.8,51.3-0.3,77
		c0.1,5.3-0.1,13.5,10.2,13.3c28.7-0.5,57.5-0.2,86.2-0.6c24-0.4,48-1.4,72.1-1.7c8.8-0.1,17.7,1.7,26.6,1.6
		c36.5-0.3,73-1.4,109.5-1.5c22.3-0.1,44.5,1,66.8,1.6c39.2,1.1,78.4-1.8,117.6,0.6c1.4,0.1,2.8-1.5,4.2-1.6c2.6-0.3,5.2-0.3,7.8,0
		c3.2,0.3,6.5,1.4,9.7,1.4c21.6,0,43.2-0.3,64.8-0.4c7.9,0,15.9,0,25.5,0c0-11.6,0-23,0-34.4c0-15.5-0.3-31,0.1-46.5
		C601.5,91.1,601.3,84,595.4,77.1z M140,119.9c-5.5,0-9.9-0.7-13.1-2.1c-7.1,10.5-11.8,16.8-14,19c-6.1,6.1-13.4,9.2-22,9.2
		c-4.8,0-8.4-1.1-10.8-3.4c-2.4-2.2-3.6-5.1-3.6-8.7c0-4.9,2-9.6,6-14c4.4-4.8,9.9-7.2,16.5-7.2c2.7,0,5,0.6,6.9,1.9
		c1.9,1.2,2.8,3.1,2.8,5.7c0,1.7-1,3.7-2.9,6.1c-1.9,2.4-3.1,3.6-3.6,3.6c-0.1,0-0.2-0.1-0.2-0.3s0.1-0.5,0.3-0.7
		c1.8-2.7,2.7-5.1,2.7-7.4c0-2.2-0.7-4-2.1-5.2c-1.4-1.2-3.1-1.8-5.1-1.8c-4.8,0-9,2.2-12.6,6.5c-3.7,4.3-5.5,8.7-5.5,13.1
		c0,2.8,0.9,5.1,2.7,6.9c1.8,1.8,4.6,2.6,8.3,2.6c7,0,13-2.4,18-7.1c2.9-2.7,5.8-6.7,8.8-11.9l7.4-13.4c3.6-5.8,7.9-14.5,12.7-26
		c-0.5,0-1,0-1.5,0c-7.7,0-15.3,0.8-23.1,2.5c-7.7,1.7-13.6,4.1-17.5,7.2c-1.7,1.3-2.6,2.6-2.6,3.8c0,1.2,0.7,2.3,2,3
		c1.3,0.8,2.9,1.1,4.7,1.1c1.8,0,4.1-0.4,6.8-1.1c2.7-0.7,4.7-1.7,6.1-2.9c0.6-0.5,1-0.7,1.2-0.7c0.5,0,0.5,0.2,0.3,0.7
		c-2,2.4-5.1,4.2-9.3,5.4c-2.6,0.7-5.1,1.1-7.6,1.1c-2.5,0-4.5-0.6-6.1-1.7c-1.6-1.1-2.4-2.6-2.4-4.5c0-1.9,1-3.8,3.1-5.7
		c3.9-3.7,10.7-6.5,20.7-8.3c7-1.2,15.1-1.9,24.2-1.9c0.7,0,1.5,0,2.3,0c1.2-1.1,2.4-1.6,3.4-1.6s1.5,0.4,1.5,1.2
		c0,0.2,0,0.4-0.1,0.6c8.8,0.6,15.9,2.1,21.4,4.4c6.5,2.7,9.7,6.3,9.7,10.6c0,2.9-1.4,6.1-4.3,9.5c-2.9,3.5-7.3,6.3-13.1,8.4
		C151.2,118.8,145.5,119.9,140,119.9z M241.8,136.4c-0.5,0-1-0.1-1.4-0.3c-2.5-1-3.7-2.8-3.7-5.6c0-1,0.1-1.9,0.3-2.9l-5.3,5.1
		c-3.3,3-5.8,4.4-7.3,4.4c-1.5,0-2.9-0.5-4.3-1.4c-1.5-1.1-2.3-2.6-2.3-4.5c0-1.2,0.2-2.4,0.7-3.7c0,0,0,0,0,0
		c-5.7,6.2-10.4,9.4-14.2,9.4c-1.9,0-3.5-0.4-4.8-1.3c-1.3-0.9-2-2.2-2-4.1c0-1.2,0.2-2.6,0.7-4.1c-5.1,6-9.2,9-12.1,9
		c-0.5,0-1-0.1-1.4-0.3c-2.5-1-3.7-2.8-3.7-5.6c0-1,0.1-1.9,0.3-2.9l-5.3,5.1c-3.3,3-5.8,4.4-7.3,4.4c-1.5,0-2.9-0.5-4.3-1.4
		c-1.5-1.1-2.3-2.6-2.3-4.5c0-4.1,2.9-9.1,8.7-14.8c5.8-5.8,11.1-8.6,15.9-8.6c1.9,0,3.1,0.7,3.7,2c0.2,0.5,0.3,0.8,0.4,1.1
		c0.1,0.3,0.2,0.5,0.3,0.5l1.2-0.3c0.6,0,1.2,0.3,1.8,0.8c0.6,0.5,0.9,0.9,0.9,1.2c0,0.3-1.8,3-5.3,8.2c-3.5,5.2-5.3,8.8-5.3,10.8
		c0,0.2,0,0.3,0.1,0.5c0.3,1.3,0.9,2,1.9,2c2.6,0,7.2-3.9,13.6-11.5c1.6-3.5,4-7.6,7-12.4c6.6-10.8,11.3-16.2,14.1-16.2
		c0.6,0,1.1,0.2,1.7,0.6c0.6,0.4,0.9,0.9,1,1.4c-1.3,1.8-3.8,5.1-7.5,10.1c-3.7,5-6.3,8.6-7.7,10.8c-1.4,2.2-2.5,3.8-3.2,4.9
		c-0.7,1.1-1.2,1.9-1.6,2.5s-0.7,1.4-1.2,2.3c-1,1.9-1.4,3.7-1.4,5.4c0,1.7,0.9,2.6,2.8,2.6c1.9,0,4.3-1,7.2-3
		c2.9-2,5.8-4.7,8.6-8.1c0.5-0.7,0.9-1.1,1.3-1.3c1.4-2,3.2-4.1,5.4-6.3c5.8-5.8,11.1-8.6,15.9-8.6c1.9,0,3.1,0.7,3.7,2
		c0.2,0.5,0.3,0.8,0.4,1.1c0.1,0.3,0.2,0.5,0.3,0.5l1.2-0.3c0.6,0,1.2,0.3,1.8,0.8c0.6,0.5,0.9,0.9,0.9,1.2c0,0.3-1.8,3-5.3,8.2
		c-3.5,5.2-5.3,8.8-5.3,10.8c0,0.2,0,0.3,0.1,0.5c0.3,1.3,0.9,2,1.9,2c2.9,0,8.3-4.9,16.2-14.6c0.2-0.2,0.4-0.3,0.6-0.3
		c0.2,0,0.3,0.2,0.3,0.6c0,0.4-0.3,1-0.8,1.7C251.1,131.5,245.6,136.4,241.8,136.4z M265.1,133.6c2.4,1.6,5.3,2.4,8.5,2.4
		c3.2,0,5.6-0.5,7.1-1.5c1.5-1,2.3-2.3,2.3-3.9c0-0.7-0.1-1.4-0.4-2.1c-0.3-0.7,0-1,0.8-1c0.3,0,0.6,0.3,0.9,1
		c0.3,0.7,0.4,1.4,0.4,2.3c0,2.3-1.1,4.1-3.2,5.6c-2.2,1.5-4.9,2.2-8.3,2.2c-3.7,0-6.8-0.7-9.3-2.1c-1-0.5-2.5-1.6-4.7-3.2
		c-2.3,1.6-3.9,2.4-4.9,2.4c-1.3,0-2-0.7-2-2.1c0-0.5,0.2-1.1,0.5-1.9s0.7-1.1,1-1.1c0.5,0,0.6,0.4,0.3,1.3
		c-0.2,0.9,0.1,1.3,0.8,1.3s1.5-0.3,2.5-1l-3.2-2.5c-0.1-0.1-0.2-0.3-0.2-0.6c0-0.3,0.3-0.7,0.9-1.2c0.6-0.5,1-0.8,1.3-0.8
		c0.3,0,1.7,1,4.1,2.9c7-7.9,12.2-13.2,15.5-15.7c-4.5-1.4-7.8-2-10-2c-0.6,0-1.2,0-1.8,0.1c-0.6,0.1-1.2,0.4-1.8,1
		c-0.7,0.6-1,1.3-1,2c0,0.7,0.3,1.3,0.9,1.8c0.6,0.5,0.9,0.9,0.9,1.1c0,0.3-0.2,0.4-0.6,0.4c-0.4,0-1.1-0.6-2.1-1.7
		c-0.9-1.1-1.4-2.3-1.4-3.5c0-2,1.4-3.3,4.3-3.9c1.5-0.3,3.1-0.4,4.7-0.4c1.6,0,5.5,1,11.7,3.1c0.8-0.5,1.6-0.7,2.6-0.7
		c2.4,0,3.6,0.7,3.6,2.1c0,0.6-0.4,1.1-1.1,1.6c-0.7,0.5-1.6,0.7-2.6,0.7s-2-0.2-2.8-0.6c-5.4,3.3-11.2,8.6-17.4,15.8L265.1,133.6z
		 M317.7,115.2c-0.7,0.5-1.6,0.7-2.6,0.7c-1,0-2-0.2-2.8-0.6c-5.4,3.3-11.2,8.6-17.4,15.8l3.1,2.4c2.4,1.6,5.3,2.4,8.5,2.4
		c3.2,0,5.6-0.5,7.1-1.5c1.5-1,2.3-2.3,2.3-3.9c0-0.7-0.1-1.4-0.4-2.1c-0.3-0.7,0-1,0.8-1c0.3,0,0.6,0.3,0.8,1
		c0.3,0.7,0.4,1.4,0.4,2.3c0,2.3-1.1,4.1-3.2,5.6c-2.2,1.5-4.9,2.2-8.3,2.2c-3.7,0-6.8-0.7-9.3-2.1c-1-0.5-2.5-1.6-4.7-3.2
		c-2.3,1.6-3.9,2.4-4.9,2.4c-1.3,0-2-0.7-2-2.1c0-0.5,0.2-1.1,0.5-1.9s0.7-1.1,1-1.1c0.5,0,0.6,0.4,0.3,1.3
		c-0.2,0.9,0.1,1.3,0.8,1.3s1.5-0.3,2.5-1l-3.2-2.5c-0.1-0.1-0.2-0.3-0.2-0.6c0-0.3,0.3-0.7,0.9-1.2c0.6-0.5,1-0.8,1.3-0.8
		c0.3,0,1.7,1,4.1,2.9c7-7.9,12.2-13.2,15.5-15.7c-4.5-1.4-7.8-2-10-2c-0.6,0-1.2,0-1.8,0.1c-0.6,0.1-1.2,0.4-1.8,1
		c-0.7,0.6-1,1.3-1,2c0,0.7,0.3,1.3,0.9,1.8c0.6,0.5,0.9,0.9,0.9,1.1c0,0.3-0.2,0.4-0.6,0.4c-0.4,0-1.1-0.6-2.1-1.7
		c-0.9-1.1-1.4-2.3-1.4-3.5c0-2,1.4-3.3,4.3-3.9c1.5-0.3,3.1-0.4,4.7-0.4c1.6,0,5.5,1,11.7,3.1c0.8-0.5,1.6-0.7,2.6-0.7
		c2.4,0,3.6,0.7,3.6,2.1C318.8,114.2,318.5,114.7,317.7,115.2z M341.3,117.9c0.1,0.2,0.1,0.5,0.1,0.8c0,2-1.9,5.3-5.7,10
		c-4.5,5.5-8.3,8.3-11.5,8.3h-1.4c-1.5,0-2.6-0.8-3.5-2.3c-0.7-1.1-1-2.3-1-3.6c0-3.4,2.5-8.2,7.4-14.3c5-6.2,9-9.2,12-9.2
		c2.9,0,4.3,1.5,4.3,4.6c0,0.8-0.1,1.8-0.4,3.1c0.1,0.2,0.6,0.3,1.6,0.3c1,0,2.6-0.5,4.7-1.6C348,114.7,345.7,116.1,341.3,117.9z
		 M527.9,122.4c-3.1,4-6.8,7.6-11.1,10.7c-4.3,3.1-8,4.7-11,4.7c-0.6,0-1.2-0.1-1.7-0.3c-3.6-1-5.4-3.1-5.4-6.1c0-0.4,0-0.7,0.1-1.1
		c-4.5,4.3-8.3,6.5-11.5,6.5c-1.9,0-3.5-0.4-4.8-1.3c-1.3-0.9-2-2.2-2-4.1c0-1.2,0.2-2.6,0.7-4.1c-5.1,6-9.2,9-12.1,9
		c-0.5,0-1-0.1-1.4-0.3c-2.5-1-3.7-2.8-3.7-5.6c0-1,0.1-1.9,0.3-2.9l-5.3,5.1c-3.3,3-5.8,4.4-7.3,4.4c-1.5,0-2.9-0.5-4.3-1.4
		c-1.5-1.1-2.3-2.6-2.3-4.5c0-1.1,0.2-2.3,0.7-3.6c-2,2-4.2,3.8-6.5,5.6c-4.3,3.1-8,4.7-11,4.7c-0.6,0-1.2-0.1-1.7-0.3
		c-1.2-0.3-2.1-0.8-2.9-1.3c-0.1,1.4-0.8,3.2-2.4,5.3c-2.1,3.1-4.4,4.7-6.9,4.7c-2.5,0-4.8-1.2-6.9-3.7c-2.1-2.5-4.2-7-6.2-13.7
		c-2-6.6-3-10.8-3-12.6c0-0.3,0-0.5,0.1-0.7c-6.8,9-11.7,15-14.6,17.9c-6.6,6.4-13.3,9.6-20.2,9.6c-4.8,0-7.2-1.8-7.2-5.4
		c0-1.8,0.6-3.8,1.7-6c1.1-2.2,2.5-4.1,4.2-5.7c1.6-1.6,3.1-2.5,4.3-2.5c0.2,0,0.3,0.1,0.3,0.2c0,0.3-0.7,1-2.1,2.1
		c-1.4,1.1-2.8,2.7-4.1,4.8c-1.3,2.1-2,4-2,5.7c0,3,2,4.5,6,4.5c7.5,0,17.9-8.8,31.1-26.5c0.7-1,1.4-1.6,1.9-2l-1.4-0.5
		c-0.7,0.3-1.3,0.4-1.8,0.4c-1.2,0-1.8-0.5-1.8-1.4c0-1.3,0.9-2.2,2.6-2.6c0.2-0.1,0.4-0.1,0.6-0.1c1,0,2.2,0.5,3.6,1.5
		c5-5.6,7.5-8.4,7.7-8.5c4.1-4.3,6.9-6.4,8.4-6.4s2.2,0.6,2.2,1.9c0,0.6-0.1,1.1-0.4,1.6c-0.3,0.5-0.6,0.8-0.9,0.8
		c-0.3,0.1-0.5-0.1-0.5-0.5c0-0.2,0.2-0.6,0.5-1c0.1-0.8-0.2-1.2-0.8-1.2c-1.8,0-6.2,4.8-13.2,14.5c1.7,0.1,3.1,0.2,4.3,0.2
		c13.2,0,21.4-3.4,24.7-10.2c0.7-1.5,1-2.8,1-4.1c0-2.5-1.1-4.7-3.4-6.5c-3.6-2.9-9.5-4.4-17.7-4.4s-16.5,2.1-25,6.2
		c-10.3,5-15.5,11-15.5,17.8c0,2.2,1.4,3.3,4.2,3.3c2.8,0,5.7-1,8.8-3.1c3.1-2,5.2-4.1,6.3-6c0.4-0.7,0.8-1.1,1.1-1.1
		c0.4,0,0.5,0.2,0.3,0.7c-1.1,3.2-3.5,5.9-7.2,8.1c-3.7,2.2-7.6,3.4-11.6,3.4c-4,0-6-1.3-6-3.8c0-0.2,0-0.4,0-0.6
		c0.9-7.4,5.4-13.7,13.7-18.9c8.3-5.2,18.2-7.8,29.8-7.8c10.8,0,18.5,1.9,23.1,5.6c2.7,2.3,4.1,4.9,4.1,8c0,1.3-0.3,2.7-0.9,4.3
		c-1.8,4.1-5.4,7.2-10.8,9.2c-5.4,2-11.2,3-17.2,3c-2.8,0-5.5-0.2-7.9-0.7c0.8,2.5,2.5,8.1,5,16.9c0.8,2.6,2,5.1,3.7,7.7
		c2.3,3.3,4.5,5,6.5,5c2.4,0,4.4-2.4,6-7.2c0.1-0.3,0.1-0.5,0.2-0.8c-0.6-0.9-1-2-1-3.3c0-4,2.5-8.6,7.5-13.8
		c5-5.2,9.5-7.8,13.4-7.8c1.3,0,2.4,0.4,3.2,1.1c0.8,0.7,1.2,1.6,1.2,2.6c0,3.2-2.4,6.2-7.2,9.1c-4.8,2.9-8.7,4.3-11.7,4.3
		c-0.5,0-0.9-0.1-1.2-0.2c-0.9,1.5-1.3,3.1-1.3,4.8c0,2.9,1.4,4.4,4.2,4.4s6.5-1.9,10.9-5.7c3.5-2.8,6.4-5.7,8.8-8.8
		c0.3-0.3,0.5-0.6,0.7-0.8c1.1-1.4,2.4-2.9,4-4.4c5.8-5.8,11.1-8.6,15.9-8.6c1.9,0,3.1,0.7,3.7,2c0.2,0.5,0.3,0.8,0.4,1.1
		c0.1,0.3,0.2,0.5,0.3,0.5l1.2-0.3c0.6,0,1.2,0.3,1.8,0.8c0.6,0.5,0.9,0.9,0.9,1.2c0,0.3-1.8,3-5.3,8.2c-3.5,5.2-5.3,8.8-5.3,10.8
		c0,0.2,0,0.3,0.1,0.5c0.3,1.3,0.9,2,1.9,2c2.6,0,7.2-3.9,13.6-11.5c1.6-3.5,4-7.6,7-12.4c6.6-10.8,11.3-16.2,14.1-16.2
		c0.6,0,1.1,0.2,1.7,0.6c0.6,0.4,0.9,0.9,1,1.4c-1.3,1.8-3.8,5.1-7.5,10.1c-3.7,5-6.3,8.6-7.7,10.8c-1.4,2.2-2.5,3.8-3.2,4.9
		c-0.7,1.1-1.2,1.9-1.6,2.5c-0.3,0.6-0.7,1.4-1.2,2.3c-1,1.9-1.4,3.7-1.4,5.4c0,1.7,0.9,2.6,2.8,2.6s4.3-1,7.2-3
		c1.8-1.2,3.5-2.6,5.2-4.3c1-3,3.3-6.4,6.8-10.1c5-5.2,9.5-7.8,13.4-7.8c1.3,0,2.4,0.4,3.2,1.1c0.8,0.7,1.2,1.6,1.2,2.6
		c0,3.2-2.4,6.2-7.2,9.1c-4.8,2.9-8.7,4.3-11.7,4.3c-0.5,0-0.9-0.1-1.2-0.2c-0.9,1.5-1.3,3.1-1.3,4.8c0,2.9,1.4,4.4,4.2,4.4
		s6.5-1.9,10.9-5.7c3.5-2.8,6.4-5.7,8.8-8.8c0.5-0.7,0.9-1,1.3-1c0.4,0,0.6,0.2,0.6,0.5C528.6,121.3,528.3,121.8,527.9,122.4z"/>
	<path class="st0" d="M161.9,89.1c-5-2-11.4-3.2-19-3.6l-2.7,8.5c-2.2,5.3-6.3,12.8-12.4,22.3c0.6,0.3,1.5,0.6,2.9,0.9
		c2.3,0.4,4,0.6,5.3,0.6c4.3,0,9.3-0.9,14.9-2.7c5.6-1.8,10.3-4.4,14.1-7.8c3.8-3.4,5.7-6.6,5.7-9.5
		C170.5,94.2,167.6,91.3,161.9,89.1z"/>
	<path class="st0" d="M437.4,121.6c3.6-2.3,5.9-4.8,6.8-7.5c0.1-0.3,0.2-0.5,0.2-0.8c0-0.7-0.7-1-2.2-1s-3.5,1.1-6.2,3.3
		c-3.6,3-6.4,6-8.3,9.3c0.3,0.1,0.7,0.2,1.1,0.2C430.9,125,433.8,123.9,437.4,121.6z"/>
	<path class="st0" d="M471,110.8c-3.5,0-8.1,2.7-13.8,8c-5.7,5.4-8.6,9.8-8.6,13.3c0,2,0.7,3.1,2.1,3.1c3.3,0,7.8-3.6,13.4-10.8
		l9-12.4C472.8,111.2,472.1,110.8,471,110.8z"/>
</g>
</svg>
