<?xml version="1.0" encoding="utf-8"?>
<!-- Generator: Adobe Illustrator 21.0.0, SVG Export Plug-In . SVG Version: 6.00 Build 0)  -->
<svg version="1.1" id="Livello_1" xmlns="http://www.w3.org/2000/svg" xmlns:xlink="http://www.w3.org/1999/xlink" x="0px" y="0px"
	 viewBox="0 0 129.7 129.6" style="enable-background:new 0 0 129.7 129.6;" xml:space="preserve">
<style type="text/css">
	.st0{fill:#55ABED;}
	.st1{fill:#FDFEFE;}
</style>
<g>
	<path class="st0" d="M0,69.6c0-3.2,0-6.5,0-9.7c0.3-0.2,0.2-0.5,0.2-0.8c0.2-2,0.5-3.9,0.8-5.9C5.9,25.8,28.4,4.3,55.9,0.6
		c1.3-0.2,2.6-0.1,3.9-0.6c3.2,0,6.5,0,9.7,0c1,0.4,2.2,0.3,3.3,0.5c15.8,2.1,29.3,8.9,39.9,20.8C128,38.5,133.1,58.7,127.5,81
		c-8.9,35.2-44.7,55.7-79.8,46.3C22.8,120.6,4,99.1,0.6,73.7C0.4,72.3,0.5,70.9,0,69.6z M29.9,87.2c0.1,0.2,0.2,0.3,0.2,0.4
		c0.1,0.1,0.3,0.2,0.4,0.3c12,6.8,24.6,8,37.2,2.6C84.1,83.5,92,70.3,93,52.8c0.1-1.7,0.4-3,1.9-4.1c2.1-1.5,3.7-3.5,5.3-5.9
		c-1.1,0.4-1.9,0.7-2.7,0.9c-0.8,0.3-1.7,0.5-2.5,0.7c-0.8,0.2-1.6,0.4-2.4,0.3c2.7-2,4.6-4.4,5.7-7.8c-2.7,1.5-5.2,2.5-7.9,3.2
		c-0.9,0.2-1.5,0.1-2.2-0.6c-4.4-4.1-11.1-4.9-16.5-2.1c-5.4,2.8-8.5,8.8-7.7,14.7c0.2,1.5,0.2,1.6-1.2,1.4
		C51.7,52.6,42.4,47.9,35,39.5c-0.8-0.9-0.8-0.9-1.3,0.1c-2.9,5.9-1.3,13.1,3.7,17.4c0.3,0.3,0.6,0.5,1.2,1c-1.4,0-2.4-0.2-3.4-0.5
		c-1-0.3-1.9-0.7-2.9-1c-0.2,2.2,0.5,5,1.8,7.3c2.1,3.6,5.3,5.9,9.6,7c-2,0.4-3.7,0.7-5.4,0.4c-0.8-0.2-1,0.1-0.7,0.9
		c1.4,3.3,3.7,5.9,7,7.5c1.9,1,3.9,1.5,6.3,1.6C44.5,85.9,37.6,87.8,29.9,87.2z"/>
	<path class="st1" d="M29.9,87.2c7.7,0.6,14.6-1.3,21-6.1c-2.4-0.1-4.4-0.6-6.3-1.6c-3.2-1.7-5.5-4.2-7-7.5c-0.3-0.8-0.1-1,0.7-0.9
		c1.7,0.3,3.4,0.1,5.4-0.4c-4.3-1.2-7.5-3.4-9.6-7c-1.3-2.3-2-5.1-1.8-7.3c1,0.4,1.9,0.7,2.9,1c1,0.3,2,0.5,3.4,0.5
		c-0.6-0.5-0.9-0.7-1.2-1c-5-4.2-6.5-11.5-3.7-17.4c0.5-1,0.5-1,1.3-0.1c7.4,8.4,16.7,13.1,27.8,14.3c1.4,0.1,1.4,0.1,1.2-1.4
		c-0.8-6,2.3-11.9,7.7-14.7c5.4-2.8,12-2,16.5,2.1c0.7,0.6,1.3,0.8,2.2,0.6c2.7-0.7,5.2-1.7,7.9-3.2c-1.1,3.4-3.1,5.8-5.7,7.8
		c0.9,0.1,1.6-0.1,2.4-0.3c0.8-0.2,1.7-0.4,2.5-0.7c0.8-0.3,1.6-0.6,2.7-0.9c-1.6,2.4-3.2,4.4-5.3,5.9c-1.5,1.1-1.8,2.3-1.9,4.1
		C92,70.3,84.1,83.5,67.7,90.5c-12.6,5.4-25.2,4.3-37.2-2.6c-0.2-0.1-0.3-0.2-0.4-0.3C30,87.5,30,87.4,29.9,87.2z"/>
</g>
</svg>
